# Blender v2.83.3 OBJ File: 'planets_spaceship.blend'
# www.blender.org
mtllib spaceship.mtl
o Cube
v 1.000000 0.273215 -1.000000
v 1.000000 -0.273215 -1.000000
v 1.000000 0.273215 1.000000
v 1.000000 -0.273215 1.000000
v -1.000000 0.122516 -0.596403
v -1.000000 -0.122516 -0.596403
v -1.000000 0.122516 0.596403
v -1.000000 -0.122516 0.596403
v -1.000000 -0.448421 -0.000000
v 1.000000 1.000000 0.000000
v -1.000000 0.581962 -0.000000
v 1.000000 -1.000000 0.000000
v 0.185237 -0.273215 4.084568
v -0.390203 -0.105887 4.084568
v -0.857697 -0.169213 4.084568
v -0.857697 -0.209889 4.084568
v -0.857697 -0.209889 -4.084568
v -0.857697 -0.169213 -4.084568
v -0.390203 -0.105887 -4.084568
v 0.185237 -0.273215 -4.084568
v -1.168329 -0.448421 -0.000000
v -1.168329 -0.122516 0.596403
v -1.168329 0.122516 0.596403
v -1.168329 0.122516 -0.596403
v -1.168329 -0.122516 -0.596403
v -1.168329 0.448421 -0.000000
v -1.577329 -0.061980 0.438356
v -1.577329 0.061980 0.438356
v -1.577329 0.215155 0.158047
v -1.577329 -0.215155 0.158047
v -1.577329 -0.215155 -0.158047
v -1.577329 0.215155 -0.158047
v -1.577329 0.061980 -0.438356
v -1.577329 -0.061980 -0.438356
v -2.264019 -0.012396 0.326232
v -2.264019 0.012396 0.326232
v -2.264019 0.043031 0.270170
v -2.264019 -0.043031 0.270170
v -2.264019 -0.043031 -0.270170
v -2.264019 0.043031 -0.270170
v -2.264019 0.012396 -0.326232
v -2.264019 -0.012396 -0.326232
v 1.265800 0.273215 -1.000000
v 1.265800 -0.273215 -1.000000
v 1.265800 0.273215 1.000000
v 1.265800 -0.273215 1.000000
v 4.759226 0.241150 0.000000
v 4.759226 -0.241150 0.000000
v 1.181962 0.473477 -0.942309
v 1.183698 1.010067 -0.222898
v 3.839949 0.463665 -0.216247
v 1.272634 0.496124 -0.957634
v 1.183698 1.010067 0.222898
v 1.181962 0.473477 0.942309
v 1.272634 0.496124 0.957634
v 3.839951 0.463665 0.216247
v 0.750000 0.254378 0.949550
v 0.500000 0.235540 0.899101
v 0.250000 0.216703 0.848651
v 0.000000 0.197865 0.798201
v -0.250000 0.179028 0.747752
v -0.500000 0.160191 0.697302
v -0.750000 0.141353 0.646852
v 1.000000 0.909152 0.125000
v 1.000000 0.818304 0.250000
v 1.000000 0.727456 0.375000
v 1.000000 0.636608 0.500000
v 1.000000 0.545760 0.625000
v 1.000000 0.454911 0.750000
v 1.000000 0.364063 0.875000
v -1.000000 0.179946 0.521852
v -1.000000 0.237377 0.447302
v -1.000000 0.294808 0.372752
v -1.000000 0.352239 0.298201
v -1.000000 0.409670 0.223651
v -1.000000 0.467100 0.149101
v -1.000000 0.524531 0.074550
v -0.750000 0.634217 -0.000000
v -0.500000 0.686471 -0.000000
v -0.250000 0.738726 -0.000000
v 0.000000 0.790981 -0.000000
v 0.250000 0.843236 -0.000000
v 0.500000 0.895490 -0.000000
v 0.750000 0.947745 -0.000000
v 0.750000 0.861074 0.118694
v 0.750000 0.774403 0.237388
v 0.750000 0.687732 0.356081
v 0.750000 0.601061 0.474775
v 0.750000 0.514391 0.593469
v 0.750000 0.427720 0.712163
v 0.750000 0.341049 0.830857
v 0.500000 0.812997 0.112388
v 0.500000 0.730503 0.224775
v 0.500000 0.648009 0.337163
v 0.500000 0.565515 0.449550
v 0.500000 0.483022 0.561938
v 0.500000 0.400528 0.674326
v 0.500000 0.318034 0.786713
v 0.250000 0.764919 0.106081
v 0.250000 0.686603 0.212163
v 0.250000 0.608286 0.318244
v 0.250000 0.529969 0.424325
v 0.250000 0.451653 0.530407
v 0.250000 0.373336 0.636488
v 0.250000 0.295020 0.742570
v 0.000000 0.716842 0.099775
v 0.000000 0.642702 0.199550
v 0.000000 0.568563 0.299325
v 0.000000 0.494423 0.399101
v 0.000000 0.420284 0.498876
v 0.000000 0.346144 0.598651
v 0.000000 0.272005 0.698426
v -0.250000 0.668764 0.093469
v -0.250000 0.598802 0.186938
v -0.250000 0.528839 0.280407
v -0.250000 0.458877 0.373876
v -0.250000 0.388915 0.467345
v -0.250000 0.318953 0.560814
v -0.250000 0.248990 0.654283
v -0.500000 0.620686 0.087163
v -0.500000 0.554901 0.174325
v -0.500000 0.489116 0.261488
v -0.500000 0.423331 0.348651
v -0.500000 0.357546 0.435814
v -0.500000 0.291761 0.522976
v -0.500000 0.225976 0.610139
v -0.750000 0.572609 0.080857
v -0.750000 0.511001 0.161713
v -0.750000 0.449393 0.242570
v -0.750000 0.387785 0.323426
v -0.750000 0.326177 0.404283
v -0.750000 0.264569 0.485139
v -0.750000 0.202961 0.565996
vt 0.843750 0.734375
vt 0.875000 0.734375
vt 0.875000 0.750000
vt 0.843750 0.750000
vt 0.875000 0.625000
vt 0.875000 0.500000
vt 0.875000 0.500000
vt 0.875000 0.625000
vt 0.125000 0.625000
vt 0.375000 0.625000
vt 0.375000 0.750000
vt 0.125000 0.750000
vt 0.625000 0.750000
vt 0.375000 0.750000
vt 0.625000 0.750000
vt 0.375000 0.625000
vt 0.125000 0.500000
vt 0.375000 0.500000
vt 0.125000 0.750000
vt 0.125000 0.625000
vt 0.625000 0.500000
vt 0.843750 0.625000
vt 0.812500 0.625000
vt 0.781250 0.625000
vt 0.750000 0.625000
vt 0.718750 0.625000
vt 0.687500 0.625000
vt 0.656250 0.625000
vt 0.625000 0.625000
vt 0.375000 0.750000
vt 0.625000 0.750000
vt 0.625000 1.000000
vt 0.375000 1.000000
vt 0.625000 1.000000
vt 0.625000 0.781250
vt 0.625000 0.812500
vt 0.625000 0.843750
vt 0.625000 0.875000
vt 0.625000 0.906250
vt 0.625000 0.937500
vt 0.625000 0.968750
vt 0.375000 1.000000
vt 0.375000 0.250000
vt 0.625000 0.250000
vt 0.625000 0.500000
vt 0.375000 0.500000
vt 0.625000 0.250000
vt 0.375000 0.250000
vt 0.375000 0.250000
vt 0.625000 0.250000
vt 0.875000 0.718750
vt 0.875000 0.703125
vt 0.875000 0.687500
vt 0.875000 0.671875
vt 0.875000 0.656250
vt 0.875000 0.640625
vt 0.875000 0.750000
vt 0.625000 1.000000
vt 0.375000 1.000000
vt 0.125000 0.500000
vt 0.375000 0.000000
vt 0.625000 0.000000
vt 0.543671 0.033125
vt 0.456329 0.033125
vt 0.625000 0.125000
vt 0.575286 0.091875
vt 0.375000 0.125000
vt 0.424714 0.091875
vt 0.575286 0.158125
vt 0.424714 0.158125
vt 0.543671 0.216875
vt 0.456329 0.216875
vt 0.625000 0.625000
vt 0.375000 0.500000
vt 0.625000 0.500000
vt 0.625000 0.608584
vt 0.625000 0.517010
vt 0.625000 0.608315
vt 0.625000 0.517430
vt 0.625000 0.640625
vt 0.625000 0.656250
vt 0.625000 0.671875
vt 0.625000 0.687500
vt 0.625000 0.703125
vt 0.625000 0.718750
vt 0.625000 0.734375
vt 0.625000 0.732990
vt 0.625000 0.641416
vt 0.625000 0.732570
vt 0.625000 0.641685
vt 0.656250 0.734375
vt 0.656250 0.750000
vt 0.687500 0.734375
vt 0.687500 0.750000
vt 0.718750 0.734375
vt 0.718750 0.750000
vt 0.750000 0.734375
vt 0.750000 0.750000
vt 0.781250 0.734375
vt 0.781250 0.750000
vt 0.812500 0.734375
vt 0.812500 0.750000
vt 0.656250 0.640625
vt 0.656250 0.656250
vt 0.656250 0.671875
vt 0.656250 0.687500
vt 0.656250 0.703125
vt 0.656250 0.718750
vt 0.687500 0.640625
vt 0.687500 0.656250
vt 0.687500 0.671875
vt 0.687500 0.687500
vt 0.687500 0.703125
vt 0.687500 0.718750
vt 0.718750 0.640625
vt 0.718750 0.656250
vt 0.718750 0.671875
vt 0.718750 0.687500
vt 0.718750 0.703125
vt 0.718750 0.718750
vt 0.750000 0.640625
vt 0.750000 0.656250
vt 0.750000 0.671875
vt 0.750000 0.687500
vt 0.750000 0.703125
vt 0.750000 0.718750
vt 0.781250 0.640625
vt 0.781250 0.656250
vt 0.781250 0.671875
vt 0.781250 0.687500
vt 0.781250 0.703125
vt 0.781250 0.718750
vt 0.812500 0.640625
vt 0.812500 0.656250
vt 0.812500 0.671875
vt 0.812500 0.687500
vt 0.812500 0.703125
vt 0.812500 0.718750
vt 0.843750 0.640625
vt 0.843750 0.656250
vt 0.843750 0.671875
vt 0.843750 0.687500
vt 0.843750 0.703125
vt 0.843750 0.718750
vt 0.456329 0.033125
vt 0.543671 0.033125
vt 0.575286 0.091875
vt 0.424714 0.091875
vt 0.424714 0.158125
vt 0.575286 0.158125
vt 0.543671 0.216875
vt 0.456329 0.216875
vn -0.1786 0.7811 0.5983
vn -0.3145 0.7928 -0.5220
vn -0.1981 -0.8183 0.5396
vn 0.0000 0.0000 1.0000
vn 0.1543 -0.8183 0.5537
vn -0.1981 -0.8183 -0.5396
vn 0.0000 -0.8775 0.4795
vn -0.1717 0.7907 -0.5876
vn 0.7421 0.5983 0.3020
vn -0.0995 0.9916 0.0823
vn -0.9992 0.0000 0.0408
vn -0.0675 -0.9975 -0.0202
vn 0.0000 0.0000 -1.0000
vn -0.9992 0.0000 -0.0408
vn -0.0995 0.9916 -0.0823
vn 0.7421 0.5983 -0.3020
vn -0.0675 -0.9975 0.0202
vn -0.3145 0.7928 0.5220
vn 0.0000 -0.8775 -0.4795
vn -0.3604 0.0000 0.9328
vn -0.3006 0.8369 0.4573
vn -0.3604 0.0000 -0.9328
vn -0.3006 -0.8369 0.4573
vn -0.3006 0.8369 -0.4573
vn -0.3006 -0.8369 -0.4573
vn 0.2752 0.0000 0.9614
vn 0.2752 0.0000 -0.9614
vn 0.1543 -0.8183 -0.5537
vn -0.5902 0.6508 -0.4776
vn 0.1958 0.9635 0.1823
vn 0.2729 0.1910 -0.9429
vn -0.0576 0.2540 -0.9655
vn -0.5902 0.6508 0.4776
vn -0.0576 0.2540 0.9655
vn 0.2729 0.1910 0.9429
vn 0.1958 0.9635 -0.1823
vn -0.1762 0.7956 0.5796
vn -0.1765 0.7942 0.5814
vn -0.1767 0.7927 0.5835
vn -0.1770 0.7909 0.5858
vn -0.1773 0.7889 0.5883
vn -0.1777 0.7867 0.5912
vn -0.1672 0.7969 0.5805
vn -0.1685 0.7967 0.5804
vn -0.1698 0.7965 0.5802
vn -0.1711 0.7964 0.5801
vn -0.1724 0.7962 0.5800
vn -0.1737 0.7960 0.5798
vn -0.1750 0.7958 0.5797
vn -0.1670 0.7956 0.5824
vn -0.1683 0.7954 0.5823
vn -0.1697 0.7952 0.5821
vn -0.1711 0.7950 0.5820
vn -0.1724 0.7948 0.5818
vn -0.1738 0.7946 0.5817
vn -0.1751 0.7944 0.5816
vn -0.1667 0.7941 0.5845
vn -0.1681 0.7939 0.5844
vn -0.1696 0.7937 0.5842
vn -0.1710 0.7935 0.5841
vn -0.1724 0.7933 0.5839
vn -0.1739 0.7931 0.5838
vn -0.1753 0.7929 0.5836
vn -0.1664 0.7924 0.5869
vn -0.1679 0.7922 0.5867
vn -0.1694 0.7920 0.5865
vn -0.1710 0.7918 0.5864
vn -0.1725 0.7916 0.5862
vn -0.1740 0.7914 0.5861
vn -0.1755 0.7911 0.5859
vn -0.1661 0.7905 0.5895
vn -0.1677 0.7903 0.5893
vn -0.1693 0.7901 0.5892
vn -0.1709 0.7899 0.5890
vn -0.1725 0.7896 0.5888
vn -0.1741 0.7894 0.5887
vn -0.1757 0.7892 0.5885
vn -0.1657 0.7884 0.5925
vn -0.1674 0.7881 0.5923
vn -0.1691 0.7879 0.5921
vn -0.1708 0.7877 0.5919
vn -0.1726 0.7874 0.5918
vn -0.1743 0.7872 0.5916
vn -0.1760 0.7869 0.5914
vn -0.1652 0.7859 0.5959
vn -0.1689 0.7854 0.5955
vn -0.1726 0.7849 0.5951
vn -0.1763 0.7844 0.5947
vn -0.1647 0.7830 0.5998
vn -0.1667 0.7828 0.5996
vn -0.1687 0.7825 0.5994
vn -0.1707 0.7822 0.5992
vn -0.1726 0.7819 0.5990
vn -0.1746 0.7817 0.5987
vn -0.1766 0.7814 0.5985
vn 0.1543 0.8183 -0.5537
vn 0.1543 0.8183 0.5537
vn -0.1781 0.7841 0.5945
vn -0.1671 0.7857 0.5957
vn -0.1708 0.7851 0.5953
vn -0.1744 0.7846 0.5949
vn -1.0000 0.0000 0.0000
vn -0.1611 0.0000 0.9869
vn -0.1403 0.8689 0.4748
vn -0.1611 0.0000 -0.9869
vn -0.1403 -0.8689 0.4748
vn -0.1403 0.8689 -0.4748
vn -0.1403 -0.8689 -0.4748
usemtl BODY
s off
f 133/1/1 71/2/1 7/3/1 63/4/1
f 11/5/2 5/6/2 24/7/2 26/8/2
f 9/9/3 12/10/3 4/11/3 8/12/3
f 3/13/4 4/11/4 46/14/4 45/15/4
f 4/11/5 12/10/5 48/16/5 46/14/5
f 6/17/6 2/18/6 12/10/6 9/9/6
f 9/9/7 8/12/7 22/19/7 21/20/7
f 1/21/8 5/6/8 11/5/8 78/22/8 79/23/8 80/24/8 81/25/8 82/26/8 83/27/8 84/28/8 10/29/8
f 13/30/4 14/31/4 15/32/4 16/33/4
f 3/13/9 14/31/9 13/30/9 4/11/9
f 7/34/10 15/32/10 14/31/10 3/13/10 57/35/10 58/36/10 59/37/10 60/38/10 61/39/10 62/40/10 63/41/10
f 8/42/11 16/33/11 15/32/11 7/34/11
f 4/11/12 13/30/12 16/33/12 8/42/12
f 17/43/13 18/44/13 19/45/13 20/46/13
f 5/47/14 18/44/14 17/43/14 6/48/14
f 1/21/15 19/45/15 18/44/15 5/47/15
f 2/18/16 20/46/16 19/45/16 1/21/16
f 6/48/17 17/43/17 20/46/17 2/18/17
f 5/47/13 6/48/13 25/49/13 24/50/13
f 7/3/18 71/2/18 72/51/18 73/52/18 74/53/18 75/54/18 76/55/18 77/56/18 11/5/18 26/8/18 23/57/18
f 8/42/4 7/34/4 23/58/4 22/59/4
f 6/17/19 9/9/19 21/20/19 25/60/19
f 22/61/20 23/62/20 28/63/20 27/64/20
f 23/62/21 26/65/21 29/66/21 28/63/21
f 26/65/22 21/67/22 30/68/22 29/66/22
f 21/67/23 22/61/23 27/64/23 30/68/23
f 21/67/20 26/65/20 32/69/20 31/70/20
f 26/65/24 24/50/24 33/71/24 32/69/24
f 24/50/22 25/49/22 34/72/22 33/71/22
f 25/49/25 21/67/25 31/70/25 34/72/25
f 48/16/26 47/73/26 45/15/26 46/14/26
f 44/74/27 43/75/27 47/73/27 48/16/27
f 2/18/13 1/21/13 43/75/13 44/74/13
f 12/10/28 2/18/28 44/74/28 48/16/28
f 1/21/29 10/29/29 50/76/29 49/77/29
f 10/29/30 47/73/30 51/78/30 50/76/30
f 47/73/31 43/75/31 52/79/31 51/78/31
f 43/75/32 1/21/32 49/77/32 52/79/32
f 10/29/33 64/80/33 65/81/33 66/82/33 67/83/33 68/84/33 69/85/33 70/86/33 3/13/33 54/87/33 53/88/33
f 3/13/34 45/15/34 55/89/34 54/87/34
f 45/15/35 47/73/35 56/90/35 55/89/35
f 47/73/36 10/29/36 53/88/36 56/90/36
f 70/86/37 91/91/37 57/92/37 3/13/37
f 91/91/38 98/93/38 58/94/38 57/92/38
f 98/93/39 105/95/39 59/96/39 58/94/39
f 105/95/40 112/97/40 60/98/40 59/96/40
f 112/97/41 119/99/41 61/100/41 60/98/41
f 119/99/42 126/101/42 62/102/42 61/100/42
f 10/29/43 84/28/43 85/103/43 64/80/43
f 64/80/44 85/103/44 86/104/44 65/81/44
f 65/81/45 86/104/45 87/105/45 66/82/45
f 66/82/46 87/105/46 88/106/46 67/83/46
f 67/83/47 88/106/47 89/107/47 68/84/47
f 68/84/48 89/107/48 90/108/48 69/85/48
f 69/85/49 90/108/49 91/91/49 70/86/49
f 84/28/50 83/27/50 92/109/50 85/103/50
f 85/103/51 92/109/51 93/110/51 86/104/51
f 86/104/52 93/110/52 94/111/52 87/105/52
f 87/105/53 94/111/53 95/112/53 88/106/53
f 88/106/54 95/112/54 96/113/54 89/107/54
f 89/107/55 96/113/55 97/114/55 90/108/55
f 90/108/56 97/114/56 98/93/56 91/91/56
f 83/27/57 82/26/57 99/115/57 92/109/57
f 92/109/58 99/115/58 100/116/58 93/110/58
f 93/110/59 100/116/59 101/117/59 94/111/59
f 94/111/60 101/117/60 102/118/60 95/112/60
f 95/112/61 102/118/61 103/119/61 96/113/61
f 96/113/62 103/119/62 104/120/62 97/114/62
f 97/114/63 104/120/63 105/95/63 98/93/63
f 82/26/64 81/25/64 106/121/64 99/115/64
f 99/115/65 106/121/65 107/122/65 100/116/65
f 100/116/66 107/122/66 108/123/66 101/117/66
f 101/117/67 108/123/67 109/124/67 102/118/67
f 102/118/68 109/124/68 110/125/68 103/119/68
f 103/119/69 110/125/69 111/126/69 104/120/69
f 104/120/70 111/126/70 112/97/70 105/95/70
f 81/25/71 80/24/71 113/127/71 106/121/71
f 106/121/72 113/127/72 114/128/72 107/122/72
f 107/122/73 114/128/73 115/129/73 108/123/73
f 108/123/74 115/129/74 116/130/74 109/124/74
f 109/124/75 116/130/75 117/131/75 110/125/75
f 110/125/76 117/131/76 118/132/76 111/126/76
f 111/126/77 118/132/77 119/99/77 112/97/77
f 80/24/78 79/23/78 120/133/78 113/127/78
f 113/127/79 120/133/79 121/134/79 114/128/79
f 114/128/80 121/134/80 122/135/80 115/129/80
f 115/129/81 122/135/81 123/136/81 116/130/81
f 116/130/82 123/136/82 124/137/82 117/131/82
f 117/131/83 124/137/83 125/138/83 118/132/83
f 118/132/84 125/138/84 126/101/84 119/99/84
f 79/23/85 78/22/85 127/139/85 120/133/85
f 121/134/86 128/140/86 129/141/86 122/135/86
f 123/136/87 130/142/87 131/143/87 124/137/87
f 125/138/88 132/144/88 133/1/88 126/101/88
f 78/22/89 11/5/89 77/56/89 127/139/89
f 127/139/90 77/56/90 76/55/90 128/140/90
f 128/140/91 76/55/91 75/54/91 129/141/91
f 129/141/92 75/54/92 74/53/92 130/142/92
f 130/142/93 74/53/93 73/52/93 131/143/93
f 131/143/94 73/52/94 72/51/94 132/144/94
f 132/144/95 72/51/95 71/2/95 133/1/95
usemtl WINDOW
f 49/77/96 50/76/96 51/78/96 52/79/96
f 53/88/97 54/87/97 55/89/97 56/90/97
f 126/101/98 133/1/98 63/4/98 62/102/98
f 120/133/99 127/139/99 128/140/99 121/134/99
f 122/135/100 129/141/100 130/142/100 123/136/100
f 124/137/101 131/143/101 132/144/101 125/138/101
usemtl Material
f 35/145/102 36/146/102 37/147/102 38/148/102
f 28/63/103 36/146/103 35/145/103 27/64/103
f 29/66/104 37/147/104 36/146/104 28/63/104
f 30/68/105 38/148/105 37/147/105 29/66/105
f 27/64/106 35/145/106 38/148/106 30/68/106
f 39/149/102 40/150/102 41/151/102 42/152/102
f 32/69/103 40/150/103 39/149/103 31/70/103
f 33/71/107 41/151/107 40/150/107 32/69/107
f 34/72/105 42/152/105 41/151/105 33/71/105
f 31/70/108 39/149/108 42/152/108 34/72/108
